<svg xmlns="http://www.w3.org/2000/svg"  viewBox="0 0 296297 333333" xmlns:xlink="http://www.w3.org/1999/xlink" shape-rendering="geometricPrecision" text-rendering="geometricPrecision" image-rendering="optimizeQuality" fill-rule="evenodd" clip-rule="evenodd"><defs><linearGradient id="id4" gradientUnits="userSpaceOnUse" x1="54128.7" y1="79355.5" x2="240318" y2="79355.5"><stop offset="0" stop-color="#e8e7e5"/><stop offset="1" stop-color="#fff"/></linearGradient><linearGradient id="id5" gradientUnits="userSpaceOnUse" x1="62019.3" y1="202868" x2="233515" y2="202868"><stop offset="0" stop-color="#e8e7e5"/><stop offset="1" stop-color="#fff"/></linearGradient><linearGradient id="id6" gradientUnits="userSpaceOnUse" x1="104963" y1="99616.9" x2="104963" y2="171021"><stop offset="0" stop-color="#d1d3d4"/><stop offset=".388" stop-color="#d1d3d4"/><stop offset="1" stop-color="#d1d3d4"/></linearGradient><linearGradient id="id7" gradientUnits="userSpaceOnUse" xlink:href="#id6" x1="194179" y1="61185.8" x2="194179" y2="135407"/><mask id="id0"><linearGradient id="id1" gradientUnits="userSpaceOnUse" x1="104963" y1="99616.9" x2="104963" y2="171021"><stop offset="0" stop-opacity="0" stop-color="#fff"/><stop offset=".388" stop-color="#fff"/><stop offset="1" stop-opacity=".831" stop-color="#fff"/></linearGradient><path fill="url(#id1)" d="M61737 99467h86453v71704H61737z"/></mask><mask id="id2"><linearGradient id="id3" gradientUnits="userSpaceOnUse" x1="194179" y1="61185.8" x2="194179" y2="135407"><stop offset="0" stop-opacity="0" stop-color="#fff"/><stop offset=".388" stop-color="#fff"/><stop offset="1" stop-opacity=".831" stop-color="#fff"/></linearGradient><path fill="url(#id3)" d="M147890 61036h92578v74521h-92578z"/></mask><style>.fil6{fill:#000;fill-opacity:.05098}</style></defs><g id="Layer_x0020_1"><g id="_513085304"><path fill="#2062af" d="M268517 300922l-120369 32411-120371-32411L0 0h296297z"/><path fill="#3c9cd7" d="M148146 24374v283109l273 74 97409-26229 22485-256954z"/><path fill="#fff" d="M148040 99617l-86153 35880 2857 35524 83296-35614 88604-37883 3674-36339-92278 38432z"/><path mask="url(#id0)" fill="url(#id6)" d="M61887 135497l2857 35524 83295-35614V99617z"/><path mask="url(#id2)" fill="url(#id7)" d="M240318 61186l-92278 38431v35790l88604-37883z"/><path fill="url(#id5)" d="M62019 135497l2858 35524 127806 407-2859 47365-42055 11840-40428-10208-2450-29399H67327l4900 56756 75950 22457 75538-22050 9800-112692z"/><path class="fil6" d="M148040 135497H61888l2857 35524 83295 266v-35790zm0 95022l-408 114-40422-10208-2450-29399H67197l4899 56756 75944 22457v-39720z"/><path fill="url(#id4)" d="M54129 61186h186189l-3674 36339H58620l-4491-36339z"/><path class="fil6" d="M148040 61186H54129l4491 36339h89420z"/></g></g></svg>